<svg width="206" height="285" viewBox="0 0 206 285" fill="none" xmlns="http://www.w3.org/2000/svg">
<path d="M205.508 257.133L165.188 164.593C165.188 164.593 174.458 158.213 177.918 155.593C190.088 146.883 197.418 134.483 197.458 118.813V92.883C197.458 64.503 181.428 38.563 156.038 25.863L104.898 0.292969L52.0082 26.733V42.153C53.0682 42.153 53.0682 42.153 52.0082 42.153C25.2282 42.153 3.52815 63.863 3.52815 90.633C3.52815 117.403 25.2382 139.113 52.0082 139.113V147.923L31.1782 157.723C12.4682 166.523 0.608155 185.413 0.808155 206.083V260.303L51.9582 284.513L52.0182 284.543L100.498 260.303L151.178 284.543L205.508 257.133V257.133ZM104.908 10.153L152.098 33.753C174.638 45.023 188.648 67.683 188.648 92.883V118.783C188.618 130.943 183.278 140.913 172.788 148.413L172.688 148.483L172.598 148.553C169.328 151.023 160.278 157.263 160.188 157.323L154.208 161.443L194.098 253.013L155.458 272.533L112.068 175.373C127.988 177.303 144.568 161.253 144.568 144.213V118.123C144.568 89.223 127.948 62.903 101.858 50.473L62.1082 31.543L104.908 10.153ZM52.0182 229.413C52.0182 210.393 62.2382 192.833 78.7782 183.433L100.448 171.083L100.498 171.103V250.483L52.0182 274.723V229.413ZM12.3482 90.653C12.3482 68.783 30.1382 50.983 52.0182 50.983C73.8982 50.983 91.6881 68.773 91.6881 90.653C91.6881 112.533 73.8982 130.323 52.0182 130.323C30.1382 130.323 12.3482 112.523 12.3482 90.653Z" fill="white"/>
</svg>
