<svg width="206" height="285" viewBox="0 0 206 285" fill="none" xmlns="http://www.w3.org/2000/svg">
<path d="M205.7 256.84L165.38 164.3C165.38 164.3 174.65 157.92 178.11 155.3C190.28 146.59 197.61 134.19 197.65 118.52V92.59C197.65 64.21 181.62 38.27 156.23 25.57L105.09 0L52.2001 26.44V41.86C53.7934 41.86 53.7934 41.86 52.2001 41.86C25.42 41.86 3.72005 63.57 3.72005 90.34C3.72005 117.11 25.43 138.82 52.2001 138.82V147.63L31.3701 157.43C12.6601 166.23 0.800049 185.12 1.00005 205.79V260.01L52.1501 284.22L52.21 284.25L100.69 260.01L151.37 284.25L205.7 256.84ZM105.1 9.86L152.29 33.46C174.83 44.73 188.84 67.39 188.84 92.59V118.49C188.81 130.65 183.47 140.62 172.98 148.12L172.88 148.19L172.79 148.26C169.52 150.73 160.47 156.97 160.38 157.03L154.4 161.15L194.29 252.72L155.65 272.24L112.26 175.08C128.18 177.01 144.76 160.96 144.76 143.92V117.83C144.76 88.93 128.14 62.61 102.05 50.18L62.3 31.25L105.1 9.86ZM52.21 229.12C52.21 210.1 62.43 192.54 78.97 183.14L100.64 170.79L100.69 170.81V250.19L52.21 274.43V229.12ZM12.54 90.36C12.54 68.49 30.33 50.69 52.21 50.69C74.09 50.69 91.88 68.48 91.88 90.36C91.88 112.24 74.09 130.03 52.21 130.03C30.34 130.03 12.54 112.23 12.54 90.36Z" fill="black"/>
</svg>